<?xml version="1.0" encoding="utf-8"?>
<!-- Generator: Adobe Illustrator 16.0.0, SVG Export Plug-In . SVG Version: 6.00 Build 0)  -->
<!DOCTYPE svg PUBLIC "-//W3C//DTD SVG 1.1//EN" "http://www.w3.org/Graphics/SVG/1.1/DTD/svg11.dtd">
<svg version="1.1" xmlns="http://www.w3.org/2000/svg" xmlns:xlink="http://www.w3.org/1999/xlink" x="0px" y="0px"
	 width="216.403px" height="263.733px" viewBox="0 0 216.403 263.733" enable-background="new 0 0 216.403 263.733"
	 xml:space="preserve">
<g id="Layer_1">
	
		<rect x="5.199" y="136.432" fill="#FBB816" stroke="#000000" stroke-width="10" stroke-miterlimit="10" width="206.459" height="122.603"/>
	<rect y="134.733" display="none" fill="#F9B817" width="216.762" height="120.667"/>
	<g>
		<rect x="5.199" y="147.733" fill="none" width="206.459" height="111.302"/>
		<path d="M32.191,185.161c-25.056,0-25.056-37.637,0-37.637c18.636,0,23.438,20.828,14.407,31.477l4.907,6.264h-8.248l-1.827-2.141
			C38.873,184.43,35.846,185.161,32.191,185.161z M38.978,169.239l2.61,3.341c3.811-6.682,0.731-17.487-9.396-17.487
			c-14.564,0-14.564,22.55,0,22.55c1.618,0,3.028-0.261,4.228-0.73l-6.264-7.674H38.978z"/>
		<path d="M58.291,172.058v-24.325h7.464v24.273c0,7.83,12.111,7.83,12.111,0v-24.273h7.412v24.325
			C85.278,189.806,58.291,189.806,58.291,172.058z"/>
		<path d="M93.526,185.056v-37.323h18.688v7.465H100.99v7.464h9.814v7.465h-9.814v7.464h11.849v7.465H93.526z"/>
		<path d="M119.834,185.056v-37.323h18.688v7.465h-11.223v7.464h9.813v7.465h-9.813v7.464h11.85v7.465H119.834z"/>
		<path d="M153.608,185.056h-7.465V146.95h1.983l18.845,21.924v-21.089h7.517v38.054h-1.983l-18.896-21.089V185.056z"/>
		<path d="M182.108,174.825c4.281,3.028,8.927,3.132,10.649,2.976c2.192-0.157,4.071-1.723,3.862-3.758
			c-0.156-2.14-1.774-3.08-3.862-3.811c-5.847-2.141-11.066-5.116-11.066-11.38s4.332-11.066,10.544-11.38
			c1.932-0.104,4.489-0.104,9.292,1.566l-0.939,7.204c-4.124-1.67-6.473-1.618-7.621-1.566c-2.662,0.156-3.863,2.088-3.706,4.176
			c0.208,2.088,2.035,3.028,4.176,3.758c5.794,2.14,10.806,5.481,10.806,11.432c0,6.212-4.281,10.962-11.275,11.327
			c-2.088,0.157-6.734-0.104-11.798-2.714L182.108,174.825z"/>
		<path d="M45.953,248.057v-22.309H29.26v22.309H18.105v-55.772H29.26v22.309h16.693v-22.309h11.154v55.772H45.953z"/>
		<path d="M87.604,190.256h1.17l23.479,57.8H99.694l-2.262-6.006H78.946l-2.185,6.006H64.125L87.604,190.256z M93.298,231.598
			l-5.07-14.508l-5.227,14.508H93.298z"/>
		<path d="M143.531,202.815c-22.075,0-22.075,34.009,0,34.009c4.836,0,8.658-1.404,10.764-2.496l1.482,11.544
			c-3.432,1.404-8.347,2.341-12.246,2.341c-37.832,0-37.754-56.63,0-56.63c3.899,0,7.644,0.702,10.998,2.184l-1.326,11.467
			C151.097,204.141,148.367,202.815,143.531,202.815z"/>
		<path d="M164.121,192.285h11.154c0,7.41,0,14.821,0,22.231l14.041-22.231h13.026l-18.097,27.535l19.656,28.237h-13.807
			l-14.82-21.841c0,7.176,0,14.664,0,21.841h-11.154V192.285z"/>
	</g>
	<g id="Crown">
		<polygon fill="#FBB816" stroke="#000000" stroke-width="10" stroke-miterlimit="10" points="211.658,54.233 116.042,135.522 
			211.658,135.522 		"/>
		<polygon fill="#FBB816" stroke="#000000" stroke-width="10" stroke-miterlimit="10" points="12.763,135.522 203.999,135.522 
			108.38,54.233 		"/>
		<polygon fill="#FBB816" stroke="#000000" stroke-width="10" stroke-miterlimit="10" points="5.199,54.233 100.817,135.522 
			5.199,135.522 		"/>
	</g>
	<g id="Nodes">
		<g>
			<circle fill="#FBB816" cx="19.174" cy="19.173" r="12.763"/>
			<path fill="#010101" d="M19.174,38.345C10.369,38.345,0,27.978,0,19.172S10.368,0,19.174,0c8.803,0,19.172,10.368,19.172,19.172
				C38.346,27.977,27.978,38.345,19.174,38.345z M19.174,9.613c-5.271,0-9.562,4.29-9.562,9.56c0,5.271,4.29,9.56,9.562,9.56
				c5.269,0,9.56-4.288,9.56-9.56S24.444,9.613,19.174,9.613z"/>
		</g>
		<g>
			<circle fill="#FBB816" cx="197.231" cy="19.172" r="12.763"/>
			<path fill="#010101" d="M197.231,38.345c-8.804,0-19.173-10.367-19.173-19.172C178.058,10.369,188.425,0,197.231,0
				c8.808,0,19.172,10.368,19.172,19.172C216.403,27.978,206.037,38.345,197.231,38.345z M197.231,9.614
				c-5.271,0-9.56,4.29-9.56,9.56c0,5.272,4.288,9.56,9.56,9.56s9.56-4.288,9.56-9.56S202.502,9.614,197.231,9.614z"/>
		</g>
		<g>
			<circle fill="#FBB816" cx="108.028" cy="19.172" r="12.763"/>
			<path fill="#010101" d="M108.03,38.345c-8.802,0-19.174-10.367-19.174-19.172C88.855,10.368,99.223,0,108.03,0
				c8.808,0,19.174,10.368,19.174,19.172C127.2,27.978,116.834,38.345,108.03,38.345z M108.03,9.613c-5.271,0-9.561,4.29-9.561,9.56
				c0,5.272,4.29,9.56,9.561,9.56c5.27,0,9.561-4.288,9.561-9.56C117.587,13.902,113.299,9.613,108.03,9.613z"/>
		</g>
	</g>
	<g display="none">
		<rect x="0.096" y="143.733" display="inline" fill="none" width="216.667" height="123.087"/>
		<path display="inline" d="M24.449,184.96c-27.598,0-27.598-41.454,0-41.454c20.526,0,25.815,22.94,15.869,34.669l5.405,6.899
			h-9.084l-2.012-2.357C31.809,184.155,28.474,184.96,24.449,184.96z M31.924,167.424l2.875,3.68
			c4.197-7.359,0.805-19.261-10.349-19.261c-16.041,0-16.041,24.838,0,24.838c1.783,0,3.335-0.288,4.657-0.805l-6.899-8.452H31.924z
			"/>
		<path display="inline" d="M53.2,170.529v-26.792h8.222v26.735c0,8.625,13.339,8.625,13.339,0v-26.735h8.165v26.792
			C82.925,190.077,53.2,190.077,53.2,170.529z"/>
		<path display="inline" d="M92.012,184.845v-41.109h20.583v8.222h-12.361v8.222h10.81v8.222h-10.81v8.222h13.052v8.222H92.012z"/>
		<path display="inline" d="M120.992,184.845v-41.109h20.583v8.222h-12.361v8.222h10.81v8.222h-10.81v8.222h13.052v8.222H120.992z"
			/>
		<path display="inline" d="M158.193,184.845h-8.222v-41.972h2.185l20.756,24.148v-23.229h8.279v41.914h-2.185l-20.813-23.228
			V184.845z"/>
		<path display="inline" d="M189.588,173.576c4.715,3.334,9.832,3.45,11.729,3.277c2.415-0.172,4.485-1.897,4.255-4.14
			c-0.173-2.357-1.955-3.392-4.255-4.197c-6.439-2.357-12.188-5.634-12.188-12.534s4.772-12.189,11.614-12.534
			c2.127-0.115,4.944-0.115,10.233,1.725l-1.034,7.935c-4.543-1.84-7.13-1.782-8.395-1.725c-2.933,0.172-4.255,2.3-4.082,4.6
			c0.229,2.3,2.242,3.334,4.6,4.14c6.382,2.357,11.901,6.037,11.901,12.591c0,6.842-4.715,12.074-12.419,12.476
			c-2.3,0.173-7.417-0.115-12.994-2.989L189.588,173.576z"/>
		<path display="inline" d="M39.144,252.845v-24.738H20.633v24.738H8.263v-61.849h12.37v24.739h18.511v-24.739h12.37v61.849H39.144z
			"/>
		<path display="inline" d="M85.335,188.747h1.297l26.037,64.098H98.743l-2.509-6.66H75.733l-2.422,6.66H59.297L85.335,188.747z
			 M91.649,234.593l-5.623-16.09l-5.796,16.09H91.649z"/>
		<path display="inline" d="M147.356,202.675c-24.48,0-24.48,37.715,0,37.715c5.362,0,9.602-1.559,11.937-2.77l1.644,12.803
			c-3.806,1.557-9.255,2.596-13.58,2.596c-41.954,0-41.867-62.801,0-62.801c4.325,0,8.477,0.778,12.196,2.422l-1.471,12.717
			C155.747,204.146,152.718,202.675,147.356,202.675z"/>
		<path display="inline" d="M170.19,190.996h12.37c0,8.218,0,16.435,0,24.653l15.57-24.653h14.446l-20.069,30.536l21.799,31.313
			h-15.311l-16.436-24.221c0,7.959,0,16.264,0,24.221h-12.37V190.996z"/>
	</g>
</g>
<g id="Guides" display="none">
</g>
<g id="Old_Design" display="none">
	<g id="Oldie">
		<polygon display="inline" fill="#F9B817" stroke="#000000" stroke-width="10" stroke-miterlimit="10" points="5.199,42.733 
			108.428,136.432 5.199,136.432 		"/>
		<polyline display="inline" fill="#F9B817" stroke="#000000" stroke-width="10" stroke-miterlimit="10" points="160.276,89.583 
			211.658,42.733 211.658,136.432 108.428,42.733 56.813,89.583 		"/>
		<path display="inline" fill="#F9B817" stroke="#000000" stroke-width="10" stroke-miterlimit="10" d="M108.428,136.432h103.229
			H108.428z"/>
	</g>
</g>
</svg>
